<?xml version="1.0" encoding="UTF-8"?>
<svg version="1.1" xmlns="http://www.w3.org/2000/svg" width="231" height="48">
<path d="M0 0 C0.78153946 -0.00478363 1.56307892 -0.00956726 2.36830139 -0.01449585 C4.01825985 -0.01789229 5.66828584 -0.00870743 7.31811523 0.01220703 C9.83666032 0.03894576 12.35073516 0.01247508 14.86914062 -0.01953125 C16.47527021 -0.01622639 18.08139703 -0.00981858 19.6875 0 C20.43660141 -0.01012115 21.18570282 -0.02024231 21.95750427 -0.03067017 C25.92238366 0.05765964 27.72571926 0.5169584 30.86157227 3.01806641 C34.98983287 8.35021852 34.27166074 14.35167269 34.37011719 20.84106445 C34.40968216 22.82775676 34.49169957 24.81345604 34.57421875 26.79882812 C34.65599515 32.54946119 34.7208992 37.65219553 31.41796875 42.54296875 C26.74340398 46.9290752 20.85848523 46.66355414 14.80859375 46.5625 C14.06577148 46.53768555 13.32294922 46.51287109 12.55761719 46.48730469 C10.2826912 46.41398305 8.01426901 46.40526812 5.73828125 46.40625 C-6.48372427 46.24121267 -6.48372427 46.24121267 -11.08984375 41.6640625 C-12.5976852 38.64837959 -12.29405487 35.51722216 -12.328125 32.20703125 C-12.33619675 31.46705399 -12.34426849 30.72707672 -12.35258484 29.9646759 C-12.36642258 28.39696595 -12.37714613 26.82922591 -12.38500977 25.26147461 C-12.40220397 22.87099618 -12.44608724 20.48190791 -12.49023438 18.09179688 C-12.50036331 16.56771849 -12.50887878 15.04362836 -12.515625 13.51953125 C-12.53313309 12.80790329 -12.55064117 12.09627533 -12.56867981 11.36308289 C-12.55400771 7.98352405 -12.12350851 5.72934403 -10.56884766 2.71459961 C-7.1790421 -0.08931775 -4.21467734 -0.0567913 0 0 Z " fill="#5163EB" transform="translate(14.08984375,1.3359375)"/>
<path d="M0 0 C3 1 3 1 4.24609375 3.15234375 C4.63925781 4.07144531 5.03242188 4.99054687 5.4375 5.9375 C5.86289062 6.92878906 6.28828125 7.92007812 6.7265625 8.94140625 C7.14679687 9.95074219 7.56703125 10.96007812 8 12 C8.39960937 12.91652344 8.79921875 13.83304688 9.2109375 14.77734375 C11.03909195 19.08841718 12.22630139 22.25605243 12 27 C9.625 27.625 9.625 27.625 7 28 C6.34 27.34 5.68 26.68 5 26 C-1.115493 26 -5.23595593 28.63954853 -10.3515625 31.8203125 C-13.43191393 33.19238644 -14.83555057 32.99388845 -18 32 C-17.86772567 25.91538067 -15.63247431 22.65130847 -12.046875 17.8359375 C-8.9976067 13.6111879 -6.37927476 9.1525049 -3.69921875 4.6875 C-2 2 -2 2 0 0 Z " fill="#EEEEF9" transform="translate(26,8)"/>
<path d="M0 0 C1.65 0 3.3 0 5 0 C5.99 3.96 6.98 7.92 8 12 C8.165 10.7625 8.33 9.525 8.5 8.25 C8.5928125 7.55390625 8.685625 6.8578125 8.78125 6.140625 C9.06777357 3.69541605 9.06777357 3.69541605 9 0 C10.65 0 12.3 0 14 0 C14.99 3.96 15.98 7.92 17 12 C17.33 8.37 17.66 4.74 18 1 C19.32 0.67 20.64 0.34 22 0 C23.59399326 1.59399326 23.2470667 3.22998725 23.3125 5.4375 C23.28738842 11.238274 21.4688428 15.81983877 19 21 C17.02 21 15.04 21 13 21 C12.67 20.01 12.34 19.02 12 18 C11.34 18.99 10.68 19.98 10 21 C6.875 21.1875 6.875 21.1875 4 21 C3.32944715 18.06333774 2.66340947 15.12577641 2 12.1875 C1.80921875 11.35412109 1.6184375 10.52074219 1.421875 9.66210938 C1.24140625 8.85966797 1.0609375 8.05722656 0.875 7.23046875 C0.70742187 6.49207764 0.53984375 5.75368652 0.3671875 4.99291992 C0 3 0 3 0 0 Z " fill="#000000" transform="translate(143,16)"/>
<path d="M0 0 C1.98 0 3.96 0 6 0 C7.34041103 4.10188948 8.67111192 8.20686436 10 12.3125 C10.3815625 13.47974609 10.763125 14.64699219 11.15625 15.84960938 C11.5171875 16.96787109 11.878125 18.08613281 12.25 19.23828125 C12.58515625 20.26993408 12.9203125 21.30158691 13.265625 22.36450195 C14 25 14 25 14 28 C12.35 28 10.7 28 9 28 C8.34 25.03 7.68 22.06 7 19 C4.36 19 1.72 19 -1 19 C-1.66 21.97 -2.32 24.94 -3 28 C-4.98 28 -6.96 28 -9 28 C-6.03 18.76 -3.06 9.52 0 0 Z M2 9 C1.67 10.98 1.34 12.96 1 15 C2.32 15 3.64 15 5 15 C4.67 13.02 4.34 11.04 4 9 C3.34 9 2.68 9 2 9 Z " fill="#000000" transform="translate(72,9)"/>
<path d="M0 0 C1.32 0 2.64 0 4 0 C4.33 4.95 4.66 9.9 5 15 C5.99 15 6.98 15 8 15 C10.26954631 11.59568053 10.36549949 9.83475798 10.625 5.8125 C10.69976562 4.72582031 10.77453125 3.63914062 10.8515625 2.51953125 C10.90054688 1.68808594 10.94953125 0.85664063 11 0 C12.32 0 13.64 0 15 0 C15.08714316 3.91652632 15.14043985 7.83280311 15.1875 11.75 C15.22520508 13.41675781 15.22520508 13.41675781 15.26367188 15.1171875 C15.27817383 16.72207031 15.27817383 16.72207031 15.29296875 18.359375 C15.31653442 19.83615723 15.31653442 19.83615723 15.34057617 21.34277344 C14.94443489 24.43352734 14.16533028 25.78815904 12 28 C9.51953125 28.390625 9.51953125 28.390625 6.8125 28.25 C5.91144531 28.21390625 5.01039062 28.1778125 4.08203125 28.140625 C3.39496094 28.09421875 2.70789063 28.0478125 2 28 C2 26.68 2 25.36 2 24 C3.98 24 5.96 24 8 24 C8.33 23.01 8.66 22.02 9 21 C8.071875 21.061875 7.14375 21.12375 6.1875 21.1875 C3 21 3 21 1.3190918 19.75268555 C-0.31737393 17.57830326 -0.35034179 16.46606412 -0.29296875 13.76953125 C-0.28330078 12.96708984 -0.27363281 12.16464844 -0.26367188 11.33789062 C-0.23853516 10.50451172 -0.21339844 9.67113281 -0.1875 8.8125 C-0.17396484 7.96751953 -0.16042969 7.12253906 -0.14648438 6.25195312 C-0.11115799 4.16769616 -0.05735139 2.08376723 0 0 Z " fill="#000000" transform="translate(108,17)"/>
<path d="M0 0 C1.32 0 2.64 0 4 0 C4.33 9.24 4.66 18.48 5 28 C0 29 0 29 -2 29 C-2.969375 29.0825 -3.93875 29.165 -4.9375 29.25 C-8 29 -8 29 -9.66015625 27.38671875 C-12.30279505 22.67927762 -11.69987659 17.21606141 -11 12 C-8.875 8.6875 -8.875 8.6875 -6 7 C-2.6875 6.6875 -2.6875 6.6875 0 7 C0 4.69 0 2.38 0 0 Z M-5 11 C-6.9078584 14.1749094 -7.1609041 16.10585211 -6.625 19.75 C-6.51414062 20.54921875 -6.40328125 21.3484375 -6.2890625 22.171875 C-6.19367188 22.77515625 -6.09828125 23.3784375 -6 24 C-5.01 24 -4.02 24 -3 24 C0.54717649 19.79593898 0.2659662 16.23066851 0 11 C-1.65 11 -3.3 11 -5 11 Z " fill="#000000" transform="translate(99,9)"/>
<path d="M0 0 C0.99 0.66 1.98 1.32 3 2 C3.34057617 3.97119141 3.34057617 3.97119141 3.29296875 6.3515625 C3.28330078 7.20234375 3.27363281 8.053125 3.26367188 8.9296875 C3.23853516 9.81914062 3.21339844 10.70859375 3.1875 11.625 C3.17396484 12.5221875 3.16042969 13.419375 3.14648438 14.34375 C3.11106925 16.56309789 3.06168461 18.78125188 3 21 C-1.23217676 22.09625019 -4.6077951 22.34858769 -9 22 C-11.0625 20.4375 -11.0625 20.4375 -12 18 C-12 14.4375 -12 14.4375 -11 11 C-7.73106489 8.26116247 -6.3339145 8 -2 8 C-2 6.68 -2 5.36 -2 4 C-4.31 4.33 -6.62 4.66 -9 5 C-9.33 3.68 -9.66 2.36 -10 1 C-6.87293041 -0.5635348 -3.42017557 -0.39958487 0 0 Z M-5 12 C-5.66 12.66 -6.32 13.32 -7 14 C-6.6814823 16.10820797 -6.6814823 16.10820797 -6 18 C-3.9837767 17.28436734 -3.9837767 17.28436734 -2 16 C-1.19471111 13.94999129 -1.19471111 13.94999129 -1 12 C-2.32 12 -3.64 12 -5 12 Z " fill="#000000" transform="translate(225,16)"/>
<path d="M0 0 C0.99 0.66 1.98 1.32 3 2 C3.34057617 3.97119141 3.34057617 3.97119141 3.29296875 6.3515625 C3.28330078 7.20234375 3.27363281 8.053125 3.26367188 8.9296875 C3.23853516 9.81914062 3.21339844 10.70859375 3.1875 11.625 C3.17396484 12.5221875 3.16042969 13.419375 3.14648438 14.34375 C3.11106925 16.56309789 3.06168461 18.78125188 3 21 C-1.23217676 22.09625019 -4.6077951 22.34858769 -9 22 C-11.0625 20.4375 -11.0625 20.4375 -12 18 C-12 14.4375 -12 14.4375 -11 11 C-7.73106489 8.26116247 -6.3339145 8 -2 8 C-2 6.68 -2 5.36 -2 4 C-4.31 4.33 -6.62 4.66 -9 5 C-9.33 3.68 -9.66 2.36 -10 1 C-6.87293041 -0.5635348 -3.42017557 -0.39958487 0 0 Z M-5 12 C-5.66 12.66 -6.32 13.32 -7 14 C-6.6814823 16.10820797 -6.6814823 16.10820797 -6 18 C-3.9837767 17.28436734 -3.9837767 17.28436734 -2 16 C-1.19471111 13.94999129 -1.19471111 13.94999129 -1 12 C-2.32 12 -3.64 12 -5 12 Z " fill="#000000" transform="translate(138,16)"/>
<path d="M0 0 C1.66666667 0.33333333 3.33333333 0.66666667 5 1 C5.33 0.67 5.66 0.34 6 0 C11.37370928 -0.46727907 11.37370928 -0.46727907 13.67700195 1.2512207 C15.31995518 3.42292654 15.3503729 4.53247352 15.29296875 7.23046875 C15.28330078 8.03291016 15.27363281 8.83535156 15.26367188 9.66210938 C15.23853516 10.49548828 15.21339844 11.32886719 15.1875 12.1875 C15.16719727 13.4549707 15.16719727 13.4549707 15.14648438 14.74804688 C15.11115799 16.83230384 15.05735139 18.91623277 15 21 C13.68 21 12.36 21 11 21 C10.95101562 20.01257813 10.90203125 19.02515625 10.8515625 18.0078125 C10.73941406 16.08582031 10.73941406 16.08582031 10.625 14.125 C10.55539063 12.84882813 10.48578125 11.57265625 10.4140625 10.2578125 C10.32758894 6.91938301 10.32758894 6.91938301 8 5 C4.98656045 8.32851768 4.55332456 10.81882813 4.3125 15.25 C4.24675781 16.32765625 4.18101562 17.4053125 4.11328125 18.515625 C4.07589844 19.33546875 4.03851563 20.1553125 4 21 C2.68 21 1.36 21 0 21 C-0.19592461 17.68794116 -0.38032746 14.37534146 -0.5625 11.0625 C-0.61857422 10.11697266 -0.67464844 9.17144531 -0.73242188 8.19726562 C-0.78076172 7.29814453 -0.82910156 6.39902344 -0.87890625 5.47265625 C-0.9260376 4.64000244 -0.97316895 3.80734863 -1.02172852 2.94946289 C-1 1 -1 1 0 0 Z " fill="#000000" transform="translate(180,16)"/>
<path d="M0 0 C0.66 0.66 1.32 1.32 2 2 C1.67 2.66 1.34 3.32 1 4 C-1.31 4 -3.62 4 -6 4 C-6 5.32 -6 6.64 -6 8 C-4.88625 8.2475 -3.7725 8.495 -2.625 8.75 C1 10 1 10 2.5 11.8125 C3.28536883 15.24848862 2.55433589 17.89132821 1 21 C-2.50147041 22.1671568 -5.32670036 22.13357453 -9 22 C-9.66 21.67 -10.32 21.34 -11 21 C-11 19.68 -11 18.36 -11 17 C-8.36 17 -5.72 17 -3 17 C-3 16.01 -3 15.02 -3 14 C-3.94875 13.54625 -4.8975 13.0925 -5.875 12.625 C-9 11 -9 11 -11 9 C-11.32339354 5.96010077 -11.45670212 3.85631647 -10 1.125 C-6.66094446 -0.75321874 -3.79001126 -0.30079454 0 0 Z " fill="#000000" transform="translate(209,16)"/>
<path d="M0 0 C1.65 0 3.3 0 5 0 C5 6.6 5 13.2 5 20 C3.35 20 1.7 20 0 20 C0 13.4 0 6.8 0 0 Z " fill="#000000" transform="translate(170,17)"/>
<path d="M0 0 C0.66 0 1.32 0 2 0 C2.12117188 0.58007812 2.24234375 1.16015625 2.3671875 1.7578125 C3.33735474 6.28028442 4.43397783 10.63750966 6 15 C5.154375 14.9175 4.30875 14.835 3.4375 14.75 C-1.03479289 15.07525766 -3.20440885 16.6642516 -7 19 C-7.66 19 -8.32 19 -9 19 C-7.67916734 16.24215033 -6.19726542 13.72822354 -4.5 11.1875 C-2.16534735 7.51679244 -0.96877841 4.22739669 0 0 Z " fill="#606FEB" transform="translate(25,14)"/>
<path d="M0 0 C3.16605486 4.74908228 2.33385215 9.86485596 2.31567383 15.45166016 C2.31251076 17.49305454 2.33599127 19.53300319 2.36132812 21.57421875 C2.36229492 23.50201172 2.36229492 23.50201172 2.36328125 25.46875 C2.36626221 26.64888672 2.36924316 27.82902344 2.37231445 29.04492188 C2 32 2 32 -1 35 C-0.67 23.45 -0.34 11.9 0 0 Z " fill="#7C89E7" transform="translate(46,7)"/>
<path d="M0 0 C-2 2 -2 2 -5.25634766 2.22705078 C-6.64229295 2.22673382 -8.02826301 2.21541759 -9.4140625 2.1953125 C-10.14370209 2.1924826 -10.87334167 2.18965271 -11.62509155 2.18673706 C-13.95856028 2.17553002 -16.29164703 2.1504251 -18.625 2.125 C-20.20572363 2.11497085 -21.78645327 2.10584489 -23.3671875 2.09765625 C-27.24493914 2.07558905 -31.12240478 2.04105615 -35 2 C-35 1.67 -35 1.34 -35 1 C-34.17274414 0.97494385 -33.34548828 0.9498877 -32.49316406 0.92407227 C-28.74528808 0.80803651 -24.99765875 0.685344 -21.25 0.5625 C-19.29707031 0.50352539 -19.29707031 0.50352539 -17.3046875 0.44335938 C-16.05429687 0.40146484 -14.80390625 0.35957031 -13.515625 0.31640625 C-12.36352539 0.27974854 -11.21142578 0.24309082 -10.02441406 0.20532227 C-7.10710233 0.10228811 -7.10710233 0.10228811 -4.78027344 -0.58227539 C-3 -1 -3 -1 0 0 Z " fill="#6376EC" transform="translate(43,45)"/>
<path d="M0 0 C1.65 0 3.3 0 5 0 C4.67 1.65 4.34 3.3 4 5 C2.68 5 1.36 5 0 5 C0 3.35 0 1.7 0 0 Z " fill="#000000" transform="translate(170,9)"/>
<path d="M0 0 C0.268125 0.61875 0.53625 1.2375 0.8125 1.875 C1.95556848 4.2995233 1.95556848 4.2995233 5 6 C2.69 6.33 0.38 6.66 -2 7 C-2 3.89448334 -1.4606285 2.64738916 0 0 Z " fill="#5D6CEA" transform="translate(7,36)"/>
</svg>
