<?xml version="1.0" encoding="UTF-8"?>
<svg version="1.1" xmlns="http://www.w3.org/2000/svg" width="153" height="150">
<path d="M0 0 C50.49 0 100.98 0 153 0 C153 49.5 153 99 153 150 C102.51 150 52.02 150 0 150 C0 100.5 0 51 0 0 Z " fill="#4C5EE6" transform="translate(0,0)"/>
<path d="M0 0 C1.2065625 0.0309375 1.2065625 0.0309375 2.4375 0.0625 C6.36219291 7.75986414 10.05652379 15.51383726 13.5 23.4375 C13.95971191 24.48897217 14.41942383 25.54044434 14.89306641 26.6237793 C16.41180141 30.10165709 17.92506236 33.58187935 19.4375 37.0625 C20.00073151 38.35664389 20.56404721 39.65075114 21.12744141 40.94482422 C22.85800664 44.92058983 24.58586048 48.8975281 26.3125 52.875 C26.58313263 53.49808044 26.85376526 54.12116089 27.13259888 54.76312256 C28.42256822 57.73474418 29.70713192 60.70849784 30.98339844 63.68603516 C31.95060166 65.93190831 32.93300047 68.17129977 33.93066406 70.40380859 C34.61854004 71.97316162 34.61854004 71.97316162 35.3203125 73.57421875 C35.72910645 74.49033936 36.13790039 75.40645996 36.55908203 76.3503418 C37.56161319 79.44570552 37.71094901 81.82668676 37.4375 85.0625 C35.78726991 88.12721302 34.381424 90.37028907 31.5625 92.4375 C28.65819885 93.29170622 26.46838388 93.33142735 23.4375 93.0625 C20.13173597 91.18308086 17.13668562 89.02609567 14.046875 86.8125 C9.62438896 84.27714371 5.39143738 84.19174302 0.4375 85.0625 C-3.62020693 86.51836212 -7.33661765 88.45365324 -11.125 90.5 C-12.16986572 91.04333984 -13.21473145 91.58667969 -14.29125977 92.14648438 C-17.39287915 93.7649273 -20.47899465 95.40985914 -23.5625 97.0625 C-25.23650387 97.95011571 -26.91094202 98.8369132 -28.5859375 99.72265625 C-30.75188723 100.87033679 -32.91749491 102.01863017 -35.08178711 103.16943359 C-49.97380681 111.07614511 -49.97380681 111.07614511 -56.5625 110.0625 C-59.31579021 108.26687595 -61.08877461 107.00995078 -62.5625 104.0625 C-63.59579293 96.05447976 -61.17745221 91.6608108 -56.84667969 85.03173828 C-55.3799125 82.78250936 -53.94319492 80.51547829 -52.5078125 78.24609375 C-50.14210815 74.51091553 -47.76571781 70.78281998 -45.3828125 67.05859375 C-41.52757364 61.0222837 -37.72718344 54.95261957 -33.9375 48.875 C-25.4955871 35.34515271 -17.02354489 21.83651445 -8.375 8.4375 C-7.66972168 7.34320679 -7.66972168 7.34320679 -6.95019531 6.22680664 C-2.96395989 0.0722917 -2.96395989 0.0722917 0 0 Z " fill="#F8F7F6" transform="translate(84.5625,19.9375)"/>
<path d="M0 0 C50.49 0 100.98 0 153 0 C153 49.5 153 99 153 150 C102.51 150 52.02 150 0 150 C0 100.5 0 51 0 0 Z M10.07421875 15.171875 C2.24208018 26.13298209 2.56381536 37.90790264 2.63671875 50.81640625 C2.63723839 52.64143371 2.63671668 54.46646174 2.63520813 56.29148865 C2.63529745 60.10155684 2.64564488 63.91141167 2.66381836 67.72143555 C2.68652006 72.58550468 2.68704222 77.44926314 2.68030071 82.3133707 C2.67694691 86.07706932 2.68361708 89.84069813 2.69342995 93.60438347 C2.69725669 95.39719209 2.69844074 97.19000851 2.6968441 98.98282051 C2.69646995 101.49463624 2.70918999 104.00606514 2.7253418 106.51782227 C2.72286438 107.24586563 2.72038696 107.973909 2.71783447 108.72401428 C2.83449288 120.18920551 6.45748821 129.31995168 14.25 137.8125 C21.90521315 145.00941879 31.98359154 148.30290758 42.30932617 148.29052734 C43.12158661 148.29724457 43.93384705 148.30396179 44.77072144 148.31088257 C47.44486688 148.32981357 50.11876053 148.33378471 52.79296875 148.3359375 C54.66376343 148.34237037 56.53455712 148.34909909 58.40534973 148.35610962 C62.32502573 148.36807127 66.24461368 148.37179174 70.16430664 148.37060547 C75.16295864 148.3704027 80.16103943 148.39766628 85.15955639 148.43214989 C89.02456706 148.45449963 92.88944223 148.45844049 96.75451088 148.45738602 C98.59592971 148.45973132 100.43735289 148.46849382 102.2787075 148.48405075 C117.34343328 148.59938005 128.6033803 146.93449086 139.90625 136.1875 C150.16946747 125.40242401 149.59801452 113.49507617 149.53125 99.46875 C149.53394901 97.46675427 149.53783482 95.46475983 149.54284668 93.46276855 C149.54872248 89.28022704 149.54024079 85.09802875 149.52148438 80.91552734 C149.49869616 75.57606429 149.51182955 70.23740571 149.53577423 64.89797211 C149.55028417 60.76790393 149.54560245 56.63802393 149.53526306 52.50794983 C149.53261012 50.54012454 149.53581463 48.57228171 149.54518127 46.60447693 C149.59898839 32.12571651 148.80300212 22.09694648 138.3671875 11.19921875 C130.55141341 3.93802929 122.64407409 1.69264162 112.17822266 1.7253418 C111.32358932 1.72023087 110.46895599 1.71511993 109.58842468 1.70985413 C106.78023151 1.69602307 103.97228557 1.69691008 101.1640625 1.69921875 C99.20022491 1.69532811 97.23638816 1.69099268 95.27255249 1.68623352 C91.16214263 1.67878514 87.05181868 1.67905246 82.94140625 1.68432617 C77.69045847 1.69011732 72.43986382 1.67319154 67.18897438 1.6499815 C63.13447027 1.63520407 59.08005041 1.63437794 55.02552414 1.63749123 C53.09035925 1.63697998 51.15518941 1.63177935 49.22005081 1.62167931 C46.50666022 1.60925496 43.79394727 1.61614236 41.08056641 1.62768555 C40.29170547 1.62004181 39.50284454 1.61239807 38.69007874 1.60452271 C27.33017766 1.71060744 17.61675507 6.66548516 10.07421875 15.171875 Z " fill="#F6F6F9" transform="translate(0,0)"/>
<path d="M0 0 C1.95274227 2.92911341 2.32688533 4.01546463 2.74609375 7.3515625 C2.91915039 8.62966797 2.91915039 8.62966797 3.09570312 9.93359375 C3.32057652 11.70431111 3.54455959 13.47514181 3.76757812 15.24609375 C5.11210037 25.15544556 8.34077127 33.1337867 13.125 41.875 C14.02537475 43.53801511 14.9238966 45.20203511 15.8203125 46.8671875 C16.21492676 47.59019043 16.60954102 48.31319336 17.01611328 49.05810547 C18 51 18 51 19 54 C16.26844845 52.95558323 13.82242908 51.89263153 11.3125 50.375 C6.59369345 48.41625011 3.03336718 47.97074945 -2 49 C-7.2526667 51.25363859 -12.11538268 54.04395345 -17 57 C-17.59312988 57.35755371 -18.18625977 57.71510742 -18.79736328 58.08349609 C-21.55857113 59.75697891 -24.30368142 61.45496337 -27.04296875 63.1640625 C-29.7372376 64.83685822 -32.44111275 66.47686653 -35.1875 68.0625 C-35.88230469 68.46597656 -36.57710937 68.86945313 -37.29296875 69.28515625 C-38.13794922 69.63900391 -38.13794922 69.63900391 -39 70 C-39.66 69.67 -40.32 69.34 -41 69 C-40.38125 68.41605469 -40.38125 68.41605469 -39.75 67.8203125 C-21.55988073 50.19863446 -11.12757213 27.80016472 -2.34765625 4.4375 C-1 1 -1 1 0 0 Z " fill="#4B5CE1" transform="translate(82,39)"/>
<path d="M0 0 C2.79900902 4.19851353 2.9538247 8.0692113 2 13 C-0.875 15.5625 -0.875 15.5625 -4 17 C-4.66 17.33 -5.32 17.66 -6 18 C-5.55397709 11.30965634 -2.92654458 5.97187878 0 0 Z " fill="#4656CF" transform="translate(82,39)"/>
<path d="M0 0 C1 2 1 2 0.25 4.5 C-1 7 -1 7 -4 9 C-3.38461538 3.46153846 -3.38461538 3.46153846 -1.4375 1.125 C-0.963125 0.75375 -0.48875 0.3825 0 0 Z " fill="#4054DF" transform="translate(70,70)"/>
<path d="M0 0 C0.66 1.32 1.32 2.64 2 4 C1 7 1 7 -3 9 C-2.01 6.03 -1.02 3.06 0 0 Z " fill="#5A6BE2" transform="translate(74,58)"/>
</svg>
